<?xml version="1.0" encoding="utf-8"?>
<COLLADA xmlns="http://www.collada.org/2005/11/COLLADASchema" version="1.4.1" xmlns:xsi="http://www.w3.org/2001/XMLSchema-instance">
  <asset>
    <contributor>
      <author>Blender User</author>
      <authoring_tool>Blender 3.6.23 commit date:2025-06-16, commit time:11:52, hash:e467db79ca8c</authoring_tool>
    </contributor>
    <created>2026-01-20T14:24:29</created>
    <modified>2026-01-20T14:24:29</modified>
    <unit name="meter" meter="1"/>
    <up_axis>Z_UP</up_axis>
  </asset>
  <library_cameras>
    <camera id="Camera-camera" name="Camera">
      <optics>
        <technique_common>
          <perspective>
            <xfov sid="xfov">39.59775</xfov>
            <aspect_ratio>1.777778</aspect_ratio>
            <znear sid="znear">0.1</znear>
            <zfar sid="zfar">100</zfar>
          </perspective>
        </technique_common>
      </optics>
      <extra>
        <technique profile="blender">
          <shiftx sid="shiftx" type="float">0</shiftx>
          <shifty sid="shifty" type="float">0</shifty>
          <dof_distance sid="dof_distance" type="float">10</dof_distance>
        </technique>
      </extra>
    </camera>
  </library_cameras>
  <library_lights>
    <light id="Light-light" name="Light">
      <technique_common>
        <point>
          <color sid="color">1000 1000 1000</color>
          <constant_attenuation>1</constant_attenuation>
          <linear_attenuation>0</linear_attenuation>
          <quadratic_attenuation>0.00111109</quadratic_attenuation>
        </point>
      </technique_common>
      <extra>
        <technique profile="blender">
          <type sid="type" type="int">0</type>
          <flag sid="flag" type="int">0</flag>
          <mode sid="mode" type="int">1</mode>
          <gamma sid="blender_gamma" type="float">1</gamma>
          <red sid="red" type="float">1</red>
          <green sid="green" type="float">1</green>
          <blue sid="blue" type="float">1</blue>
          <shadow_r sid="blender_shadow_r" type="float">0</shadow_r>
          <shadow_g sid="blender_shadow_g" type="float">0</shadow_g>
          <shadow_b sid="blender_shadow_b" type="float">0</shadow_b>
          <energy sid="blender_energy" type="float">1000</energy>
          <dist sid="blender_dist" type="float">29.99998</dist>
          <spotsize sid="spotsize" type="float">75</spotsize>
          <spotblend sid="spotblend" type="float">0.15</spotblend>
          <att1 sid="att1" type="float">0</att1>
          <att2 sid="att2" type="float">1</att2>
          <falloff_type sid="falloff_type" type="int">2</falloff_type>
          <clipsta sid="clipsta" type="float">0.04999995</clipsta>
          <clipend sid="clipend" type="float">30.002</clipend>
          <bias sid="bias" type="float">1</bias>
          <bufsize sid="bufsize" type="int">2880</bufsize>
          <samp sid="samp" type="int">3</samp>
          <buffers sid="buffers" type="int">1</buffers>
          <radius sid="radius" type="float">0.1</radius>
          <area_shape sid="area_shape" type="int">1</area_shape>
          <area_size sid="area_size" type="float">0.1</area_size>
          <area_sizey sid="area_sizey" type="float">0.1</area_sizey>
          <area_sizez sid="area_sizez" type="float">1</area_sizez>
        </technique>
      </extra>
    </light>
  </library_lights>
  <library_images/>
  <library_geometries>
    <geometry id="table-mesh" name="table">
      <mesh>
        <source id="table-mesh-positions">
          <float_array id="table-mesh-positions-array" count="96">20 -10 25 20 -10 0 20 -15 25 20 -15 0 25 -15 0 25 -10 0 25 -10 25 25 10 25 20 10 25 -20 -10 25 -20 10 25 -25 -10 25 -25 10 25 -20 -15 25 -20 15 25 20 15 25 -20 -10 0 -20 -15 0 -25 -10 0 -25 -15 0 20 15 0 20 10 0 25 10 0 25 15 0 -20 15 0 -20 10 0 -25 15 0 -25 10 0 -25 -15 30 25 -15 30 -25 15 30 25 15 30</float_array>
          <technique_common>
            <accessor source="#table-mesh-positions-array" count="32" stride="3">
              <param name="X" type="float"/>
              <param name="Y" type="float"/>
              <param name="Z" type="float"/>
            </accessor>
          </technique_common>
        </source>
        <source id="table-mesh-normals">
          <float_array id="table-mesh-normals-array" count="18">-1 0 0 0 0 -1 0 1 0 1 0 0 0 -1 0 0 0 1</float_array>
          <technique_common>
            <accessor source="#table-mesh-normals-array" count="6" stride="3">
              <param name="X" type="float"/>
              <param name="Y" type="float"/>
              <param name="Z" type="float"/>
            </accessor>
          </technique_common>
        </source>
        <vertices id="table-mesh-vertices">
          <input semantic="POSITION" source="#table-mesh-positions"/>
        </vertices>
        <triangles count="60">
          <input semantic="VERTEX" source="#table-mesh-vertices" offset="0"/>
          <input semantic="NORMAL" source="#table-mesh-normals" offset="1"/>
          <p>0 0 1 0 2 0 2 0 1 0 3 0 3 1 1 1 4 1 4 1 1 1 5 1 1 2 0 2 5 2 5 2 0 2 6 2 6 1 0 1 7 1 7 1 0 1 8 1 8 1 0 1 9 1 8 1 9 1 10 1 10 1 9 1 11 1 10 1 11 1 12 1 2 1 13 1 0 1 0 1 13 1 9 1 14 1 15 1 10 1 10 1 15 1 8 1 16 3 9 3 17 3 17 3 9 3 13 3 9 2 16 2 11 2 11 2 16 2 18 2 16 1 17 1 18 1 18 1 17 1 19 1 15 0 20 0 8 0 8 0 20 0 21 0 21 1 20 1 22 1 22 1 20 1 23 1 8 4 21 4 7 4 7 4 21 4 22 4 24 3 14 3 25 3 25 3 14 3 10 3 24 1 25 1 26 1 26 1 25 1 27 1 25 4 10 4 27 4 27 4 10 4 12 4 2 4 28 4 13 4 13 4 28 4 19 4 13 4 19 4 17 4 3 4 4 4 2 4 2 4 4 4 29 4 2 4 29 4 28 4 14 2 30 2 15 2 15 2 30 2 31 2 15 2 31 2 23 2 24 2 26 2 14 2 14 2 26 2 30 2 23 2 20 2 15 2 11 0 30 0 12 0 12 0 30 0 26 0 12 0 26 0 27 0 18 0 19 0 11 0 11 0 19 0 28 0 11 0 28 0 30 0 29 5 31 5 28 5 28 5 31 5 30 5 7 3 31 3 6 3 6 3 31 3 29 3 6 3 29 3 4 3 22 3 23 3 7 3 7 3 23 3 31 3 4 3 5 3 6 3</p>
        </triangles>
      </mesh>
    </geometry>
  </library_geometries>
  <library_visual_scenes>
    <visual_scene id="Scene" name="Scene">
      <node id="table" name="table" type="NODE">
        <matrix sid="transform">1 0 0 0 0 1 0 0 0 0 1 0 0 0 0 1</matrix>
        <instance_geometry url="#table-mesh" name="table"/>
      </node>
      <node id="Camera" name="Camera" type="NODE">
        <matrix sid="transform">0.6859207 -0.3240135 0.6515582 7.358891 0.7276763 0.3054208 -0.6141704 -6.925791 0 0.8953956 0.4452714 4.958309 0 0 0 1</matrix>
        <instance_camera url="#Camera-camera"/>
      </node>
      <node id="Light" name="Light" type="NODE">
        <matrix sid="transform">-0.2908646 -0.7711008 0.5663932 4.076245 0.9551712 -0.1998834 0.2183912 1.005454 -0.05518906 0.6045247 0.7946723 5.903862 0 0 0 1</matrix>
        <instance_light url="#Light-light"/>
      </node>
    </visual_scene>
  </library_visual_scenes>
  <scene>
    <instance_visual_scene url="#Scene"/>
  </scene>
</COLLADA>